<?xml version="1.0" encoding="utf-8"?>
<!-- Generator: Adobe Illustrator 24.1.2, SVG Export Plug-In . SVG Version: 6.00 Build 0)  -->
<svg version="1.1" id="Layer_1" xmlns="http://www.w3.org/2000/svg" xmlns:xlink="http://www.w3.org/1999/xlink" x="0px" y="0px"
	 viewBox="0 0 200 200" style="enable-background:new 0 0 200 200;" xml:space="preserve">
<style type="text/css">
	.st0{fill:#010101;}
	.st1{fill:#6578BA;}
	.st2{fill:#68A850;}
	.st3{fill:#E8BF1F;}
	.st4{fill:#CB4B3A;}
	.st5{fill:#ED1C24;}
</style>
<g transform="translate(886.67 691.95)">
	<g transform="matrix(11.37 0 0 11.37 -5724 -11099)">
		<path class="st0" d="M434.5,916.2c-0.1,0-0.2,0-0.2,0c0,0-0.1,0-0.1,0c0,0,0,0,0,0c0,0,0,0,0,0c0,0-0.1,0-0.1,0c0,0,0,0,0,0
			c0,0,0,0,0,0c0,0-0.1,0-0.1,0c0,0,0,0,0,0c0,0,0,0,0,0c0,0-0.1,0-0.1,0c0,0,0,0,0,0c0,0,0,0-0.1,0c0,0,0,0,0,0c0,0,0,0,0,0
			c0,0,0,0,0,0c0,0-0.1,0-0.1,0c0,0-0.1,0-0.1,0c0,0,0,0,0,0s0,0,0,0c0,0,0,0,0,0c0,0-0.1,0-0.1,0c0,0-0.1,0-0.1,0c0,0-0.1,0-0.1,0
			c0,0-0.1,0-0.1,0c0,0-0.1,0-0.1,0c0,0-0.1,0-0.1,0c-0.2,0-0.3,0.1-0.5,0.1c0,0,0,0-0.1,0c-0.1,0-0.1,0-0.2,0.1c0,0,0,0,0,0
			c0,0,0,0,0,0c0,0,0,0,0,0c0,0,0,0,0,0c0,0-0.1,0-0.1,0c0,0-0.1,0-0.1,0c0,0,0,0,0,0c0,0,0,0,0,0c0,0,0,0,0,0c0,0-0.1,0-0.1,0
			c0,0-0.1,0-0.1,0.1c0,0-0.1,0-0.1,0c0,0,0,0,0,0c0,0,0,0,0,0c0,0,0,0,0,0c0,0,0,0,0,0c0,0,0,0,0,0c0,0-0.1,0-0.1,0.1c0,0,0,0,0,0
			c0,0,0,0,0,0c0,0-0.1,0-0.1,0c0,0-0.1,0-0.1,0.1c0,0,0,0-0.1,0c0,0,0,0,0,0c0,0,0,0,0,0c0,0,0,0,0,0c0,0-0.1,0-0.1,0.1l0,0
			c0,0,0,0,0,0c0,0,0,0,0,0c0,0,0,0,0,0c0,0,0,0-0.1,0c0,0,0,0,0,0c-0.1,0-0.1,0.1-0.2,0.1c0,0-0.1,0.1-0.1,0.1c0,0,0,0,0,0
			c0,0-0.1,0-0.1,0.1c0,0,0,0,0,0c0,0-0.1,0-0.1,0.1c0,0-0.1,0.1-0.1,0.1c-0.1,0.1-0.2,0.1-0.2,0.2l0,0c0,0,0,0,0,0
			c-0.1,0.1-0.1,0.1-0.2,0.2c0,0,0,0,0,0c0,0-0.1,0.1-0.1,0.1c0,0,0,0,0,0c0,0,0,0,0,0c0,0,0,0,0,0c0,0,0,0-0.1,0c0,0,0,0,0,0
			c-0.1,0.1-0.1,0.1-0.2,0.2c0,0,0,0,0,0c0,0,0,0,0,0c0,0,0,0,0,0c0,0,0,0,0,0l0,0c0,0,0,0,0,0c-0.1,0.1-0.1,0.1-0.2,0.2
			c0,0,0,0,0,0c-0.1,0.1-0.1,0.1-0.2,0.2c0,0,0,0,0,0c0,0,0,0,0,0c-0.5,0.5-0.9,1.1-1.3,1.8v0c-0.4,0.8-0.7,1.7-0.8,2.6
			c-0.1,0.4-0.1,0.7-0.1,1.1c0,0.1,0,0.2,0,0.3c0,0.1,0,0.2,0,0.3c0,0.1,0,0.2,0,0.3c0,0,0,0,0,0c0,0,0,0,0,0c0,0,0,0,0,0
			c0,0,0,0,0,0s0,0,0,0c0,0.1,0,0.2,0,0.3c0,0,0,0,0,0c0,0,0,0,0,0c0,0,0,0,0,0c0,0,0,0,0,0c0,0,0,0,0,0.1c0,0,0,0,0,0c0,0,0,0,0,0
			c0,0.1,0,0.2,0,0.3c0,0,0,0,0,0c0,0,0,0,0,0c0,0,0,0,0,0.1c0,0.1,0,0.1,0,0.2c0,0,0,0,0,0.1c0,0,0,0,0,0c0,0,0,0,0,0
			c0,0.1,0,0.1,0.1,0.2c0,0,0,0.1,0,0.1c0,0.1,0,0.1,0.1,0.2c0,0,0,0,0,0c0,0,0,0,0,0c0,0,0,0.1,0,0.1c0,0,0,0,0,0c0,0,0,0,0,0
			c0,0,0,0.1,0,0.1c0.1,0.3,0.2,0.5,0.3,0.8c0,0,0,0,0,0c0,0,0,0,0,0c0.3,0.5,0.6,1,0.9,1.5c0.8,1,1.8,1.8,3,2.3h0
			c0.2,0.1,0.4,0.2,0.6,0.2h0c0.3,0.1,0.6,0.2,0.9,0.3c0.4,0.1,1,0.1,1.7,0.1c0.1,0,0.2,0,0.3,0c0.2,0,0.4,0,0.6,0
			c0.2,0,0.4,0,0.5,0c0.2,0,0.3,0,0.5-0.1s0.3-0.1,0.4-0.1c0.2-0.1,0.4-0.1,0.6-0.2c0.1,0,0.2-0.1,0.3-0.1c0.5-0.2,1-0.4,1.1-0.5
			c0.1-0.1,0.3-0.2,0.4-0.3c0,0,0.1,0,0.1-0.1c0,0,0,0,0,0c0,0,0,0,0,0c0,0,0,0,0,0c0,0,0.1-0.1,0.1-0.1c0,0,0,0,0,0c0,0,0,0,0,0
			c0,0,0.1-0.1,0.1-0.1c0,0,0,0,0,0c0.1-0.1,0.1-0.1,0.2-0.2c0,0,0,0,0,0c0.5-0.5,1.1-1.3,1.3-1.8c0.6-1.2,0.8-1.9,0.9-3.5
			c0-0.8,0-1.6,0-1.8l-0.1-0.4h-7.4l0,1.6l0,1.6l2,0c1.1,0,2,0,2,0.1c0.1,0.1-0.4,1.2-0.8,1.7c-0.2,0.2-0.4,0.4-0.6,0.6
			c-0.1,0-0.1,0.1-0.2,0.1c0,0,0,0,0,0c0,0,0,0,0,0c0,0,0,0,0,0c0,0-0.1,0-0.1,0.1c0,0,0,0-0.1,0c0,0,0,0,0,0
			c-0.1,0.1-0.3,0.1-0.4,0.2c0,0,0,0,0,0h0c0,0,0,0,0,0c0,0,0,0,0,0c-0.1,0-0.1,0.1-0.2,0.1c0,0,0,0,0,0c0,0,0,0,0,0c0,0,0,0,0,0
			c-0.1,0-0.1,0-0.2,0.1c0,0,0,0,0,0c0,0,0,0,0,0c0,0,0,0,0,0c0,0-0.1,0-0.1,0c0,0,0,0-0.1,0c0,0,0,0,0,0c0,0,0,0,0,0
			c-0.1,0-0.1,0-0.2,0c0,0,0,0,0,0c0,0,0,0,0,0c0,0,0,0,0,0c-0.1,0-0.1,0-0.2,0c0,0,0,0,0,0c0,0,0,0,0,0c0,0,0,0,0,0c0,0,0,0,0,0
			c-0.1,0-0.1,0-0.2,0c0,0,0,0,0,0c0,0,0,0,0,0c0,0,0,0,0,0c0,0,0,0,0,0c-0.1,0-0.1,0-0.2,0c0,0,0,0,0,0c0,0,0,0,0,0
			c-0.1,0-0.1,0-0.2,0c0,0,0,0,0,0c0,0,0,0,0,0c0,0,0,0,0,0c0,0-0.1,0-0.1,0c0,0-0.1,0-0.1,0c0,0,0,0,0,0c-0.1,0-0.1,0-0.2,0
			c0,0,0,0,0,0c-0.1,0-0.1,0-0.2,0c0,0,0,0,0,0c0,0,0,0,0,0c-0.1,0-0.1,0-0.2,0c-0.1,0-0.2,0-0.2-0.1h0c-0.5-0.1-0.9-0.3-1.2-0.6h0
			c-0.1-0.1-0.2-0.2-0.4-0.3h0c0,0-0.1,0-0.1-0.1c0,0,0,0,0,0c-0.3-0.2-0.5-0.5-0.7-0.7c-0.1-0.1-0.2-0.2-0.2-0.4
			c-0.2-0.3-0.3-0.6-0.4-1c0,0,0-0.1,0-0.1c0-0.1-0.1-0.3-0.1-0.4c0,0,0,0,0,0c0-0.1,0-0.2,0-0.3c0,0,0,0,0,0c0,0,0,0,0,0
			c0,0,0,0,0,0c0,0,0-0.1,0-0.1c0,0,0,0,0-0.1c0,0,0,0,0,0c0-0.1,0-0.1,0-0.2c0,0,0,0,0,0c0,0,0-0.1,0-0.1c0,0,0-0.1,0-0.1
			c0,0,0,0,0,0c0,0,0,0,0-0.1c0,0,0-0.1,0-0.1c0,0,0-0.1,0-0.1c0-0.1,0-0.1,0-0.2c0,0,0,0,0-0.1c0,0,0-0.1,0-0.1c0,0,0,0,0-0.1
			c0,0,0,0,0,0c0,0,0,0,0,0c0,0,0,0,0,0c0,0,0-0.1,0-0.1c0,0,0,0,0,0c0,0,0,0,0-0.1c0,0,0,0,0-0.1c0-0.1,0-0.1,0-0.2
			c0-0.1,0-0.1,0-0.2c0-0.1,0-0.1,0-0.2c0,0,0,0,0,0c0-0.1,0-0.1,0.1-0.2c0,0,0,0,0,0h0c0,0,0,0,0,0c0,0,0,0,0,0
			c0-0.1,0-0.1,0.1-0.2c0,0,0,0,0,0c0-0.1,0.1-0.1,0.1-0.2c0,0,0,0,0,0c0,0,0,0,0,0c0,0,0,0,0,0c0,0,0,0,0,0h0c0,0,0,0,0,0
			c0,0,0,0,0,0c0,0,0,0,0,0c0,0,0-0.1,0.1-0.1c0,0,0,0,0,0c0-0.1,0.1-0.1,0.1-0.2c0,0,0,0,0,0c0,0,0,0,0,0c0,0,0,0,0,0c0,0,0,0,0,0
			c0,0,0,0,0,0c0,0,0,0,0,0c0,0,0,0,0,0c0,0,0,0,0,0h0c0,0,0,0,0-0.1c0,0,0-0.1,0.1-0.1c0,0,0,0,0,0c0,0,0.1-0.1,0.1-0.1
			c0,0,0,0,0,0c0,0,0,0,0,0c0,0,0,0,0,0c0,0,0,0,0,0c0,0,0.1-0.1,0.1-0.1c0,0,0,0,0,0c0,0,0,0,0,0l0,0c0,0,0,0,0,0l0,0c0,0,0,0,0,0
			c0,0,0.1-0.1,0.1-0.1c0,0,0,0,0,0l0,0c0,0,0,0,0,0c0,0,0,0,0,0c0,0,0.1-0.1,0.1-0.1c0,0,0.1-0.1,0.1-0.1c0.2-0.2,0.5-0.4,0.8-0.6
			c0,0,0,0,0,0c0,0,0,0,0,0c0,0,0,0,0,0c0,0,0.1,0,0.1-0.1c0,0,0,0,0.1,0c0,0,0.1,0,0.1-0.1c0,0,0,0,0,0c0,0,0,0,0,0c0,0,0,0,0.1,0
			c0,0,0.1,0,0.1-0.1c0,0,0,0,0.1,0c0,0,0.1,0,0.1,0c0,0,0,0,0,0c0,0,0.1,0,0.1,0c0,0,0,0,0,0c0,0,0,0,0,0c0,0,0.1,0,0.1,0
			c0,0,0,0,0,0c0,0,0.1,0,0.1,0c0,0,0.1,0,0.1,0c0,0,0,0,0,0c0,0,0,0,0.1,0c0,0,0,0,0,0c0,0,0,0,0,0c0,0,0,0,0,0c0,0,0.1,0,0.1,0
			c0,0,0,0,0,0c0,0,0,0,0.1,0c0,0,0,0,0,0c0,0,0,0,0,0c0,0,0.1,0,0.1,0c0,0,0.1,0,0.1,0c0,0,0,0,0,0c0,0,0.1,0,0.1,0c0,0,0,0,0,0
			c0,0,0,0,0,0c0,0,0,0,0,0c0,0,0,0,0,0c0,0,0.1,0,0.1,0c0,0,0.1,0,0.1,0c0,0,0.1,0,0.1,0c0,0,0,0,0,0c0,0,0,0,0,0c0,0,0,0,0,0
			c0,0,0.1,0,0.1,0c0,0,0,0,0,0c0,0,0,0,0,0c0,0,0,0,0.1,0c0,0,0.1,0,0.1,0c0,0,0,0,0,0c0,0,0.1,0,0.1,0c0,0,0,0,0,0
			c0,0,0.1,0,0.1,0c0,0,0,0,0,0c0,0,0,0,0,0c0,0,0,0,0,0c0,0,0.1,0,0.1,0c0,0,0,0,0,0c0,0,0.1,0,0.1,0c0,0,0,0,0,0c0,0,0,0,0,0
			c0,0,0,0,0,0c0,0,0,0,0,0c0,0,0,0,0,0c0.1,0,0.1,0,0.2,0c0,0,0.1,0,0.1,0c0,0,0.1,0,0.1,0c0,0,0,0,0,0c0.2,0.1,0.4,0.1,0.5,0.2
			c0.2,0.1,0.4,0.2,0.5,0.2c0.2,0.1,0.4,0.2,0.5,0.3h0c0,0,0.1,0,0.1,0.1l0.2,0.2l1.1-1.1c0.3-0.3,0.6-0.6,0.8-0.8
			c0.1-0.1,0.1-0.1,0.1-0.2v0c0.1-0.1,0.2-0.2,0.2-0.2v0c0,0,0,0,0,0c0,0,0,0,0,0c0,0-0.1-0.1-0.2-0.2h0c-0.1-0.1-0.3-0.2-0.5-0.4h0
			c-0.1-0.1-0.2-0.1-0.3-0.2h0c-0.2-0.1-0.4-0.3-0.7-0.4h0c-0.1-0.1-0.2-0.1-0.3-0.2c-0.1,0-0.1-0.1-0.2-0.1c0,0,0,0,0,0
			c-0.1,0-0.1,0-0.2-0.1c0,0,0,0,0,0c0,0,0,0,0,0c0,0,0,0,0,0c0,0,0,0,0,0c0,0,0,0-0.1,0c0,0,0,0,0,0c0,0,0,0,0,0c0,0,0,0,0,0
			c0,0-0.1,0-0.1,0c0,0-0.1,0-0.1,0c0,0-0.1,0-0.1,0c0,0-0.1,0-0.1,0c0,0,0,0,0,0c0,0,0,0,0,0c0,0,0,0,0,0c0,0-0.1,0-0.1,0
			c0,0,0,0,0,0c0,0,0,0,0,0c0,0,0,0,0,0c0,0,0,0-0.1,0c0,0,0,0,0,0c0,0,0,0,0,0c-0.1,0-0.1,0-0.2,0c0,0,0,0,0,0c0,0,0,0,0,0
			c0,0,0,0,0,0c-0.1,0-0.1,0-0.2,0c-0.1,0-0.1,0-0.2,0c0,0,0,0,0,0c0,0,0,0,0,0l0,0c0,0,0,0,0,0c0,0,0,0,0,0c0,0,0,0,0,0
			c-0.1,0-0.1,0-0.2,0c0,0,0,0,0,0c0,0,0,0,0,0l0,0c0,0,0,0,0,0c0,0-0.1,0-0.1,0c0,0-0.1,0-0.1,0c0,0-0.1,0-0.1,0c0,0-0.1,0-0.1,0
			c0,0,0,0,0,0c0,0,0,0,0,0c0,0,0,0,0,0c0,0,0,0,0,0c0,0,0,0,0,0c0,0,0,0,0,0c0,0,0,0-0.1,0c0,0-0.1,0-0.1,0l0,0c0,0,0,0,0,0
			c0,0,0,0,0,0c-0.1,0-0.1,0-0.2,0c0,0,0,0-0.1,0C434.7,916.2,434.6,916.2,434.5,916.2L434.5,916.2z"/>
		<g transform="translate(241.67 815.03)">
			<path class="st1" d="M191.1,116.8c-3.4-0.8-5.9-3.7-6.2-7.1c-0.2-2.9,1.3-5.8,3.9-7.4c2.1-1.2,5-1.4,7.2-0.4c0.8,0.4,2,1.2,2,1.4
				c0,0.1-0.5,0.6-1.1,1.2l-1.1,1.1l-0.2-0.2c-0.4-0.3-1.3-0.8-1.9-0.9c-2.2-0.5-4.8,1.2-5.2,3.4c-0.6,2.6,0.8,5,3.4,5.7
				c1.5,0.4,3.4-0.1,4.3-1.2c0.4-0.5,0.9-1.5,0.8-1.7c0,0-1-0.1-2-0.1l-2,0l0-1.6l0-1.6h7.4l0.1,0.4c0,0.2,0,1,0,1.8
				c-0.1,1.6-0.2,2.3-0.9,3.5c-0.4,0.7-1.4,2-1.9,2.3c-0.2,0.1-0.4,0.2-0.4,0.3c-0.2,0.2-1.3,0.7-2,0.9
				C194.2,116.9,192,117,191.1,116.8L191.1,116.8z"/>
			<path class="st2" d="M192.9,101.2c-1.4,0-2.9,0.3-4,1c-2.6,1.6-4.2,4.5-3.9,7.4c0.3,3.5,2.8,6.4,6.2,7.1c0.9,0.2,3.1,0.1,3.9-0.1
				c0.7-0.2,1.8-0.7,2-0.9c0.1-0.1,0.3-0.2,0.4-0.3c0.2-0.1,0.4-0.3,0.6-0.5l-2.6-2c-1,0.7-2.5,1-3.7,0.6c-2.5-0.7-3.9-3-3.4-5.7
				c0.5-2.2,3-3.9,5.2-3.4c0.6,0.1,1.5,0.6,1.9,0.9l0.2,0.2l1.1-1.1c0.6-0.6,1.1-1.2,1.1-1.2c0-0.2-1.2-1-2-1.4
				C195.1,101.4,194,101.2,192.9,101.2L192.9,101.2z"/>
			<path class="st3" d="M192.9,101.2c-1.4,0-2.9,0.3-4,1c-2.6,1.6-4.2,4.5-3.9,7.4c0.1,1,0.4,2,0.8,2.9l2.8-2.1
				c-0.2-0.8-0.2-1.6-0.1-2.5c0.5-2.2,3-3.9,5.2-3.4c0.6,0.1,1.5,0.6,1.9,0.9l0.2,0.2l1.1-1.1c0.6-0.6,1.1-1.2,1.1-1.2
				c0-0.2-1.2-1-2-1.4C195.1,101.4,194,101.2,192.9,101.2L192.9,101.2z"/>
			<path class="st4" d="M192.9,101.2c-1.4,0-2.9,0.3-4,1c-1.3,0.8-2.4,1.9-3,3.2l2.7,2.1c0.6-2.1,3-3.5,5.1-3.1
				c0.6,0.1,1.5,0.6,1.9,0.9l0.2,0.2l1.1-1.1c0.6-0.6,1.1-1.2,1.1-1.2c0-0.2-1.2-1-2-1.4C195.1,101.4,194,101.2,192.9,101.2
				L192.9,101.2z"/>
		</g>
	</g>
</g>
<rect x="-13.4" y="87.1" transform="matrix(0.7071 -0.7071 0.7071 0.7071 -41.4229 99.9963)" class="st5" width="226.7" height="25.9"/>
<rect x="-13" y="86.7" transform="matrix(-0.7071 -0.7071 0.7071 -0.7071 100.9183 241.0336)" class="st5" width="226.7" height="25.9"/>
</svg>
